<svg width="24" height="24" viewBox="0 0 24 24" fill="none" xmlns="http://www.w3.org/2000/svg" role="img" aria-label="台語起步">
<rect width="24" height="24" rx="6" fill="#17324D"/>
<path d="M12 4C16.4183 4 20 7.58172 20 12C20 16.4183 16.4183 20 12 20C7.58172 20 4 16.4183 4 12C4 7.58172 7.58172 4 12 4Z" fill="#F6F1E7"/>
<path d="M9 8.2H15.2C15.6636 8.2 16 8.5364 16 9V9.4C16 9.8636 15.6636 10.2 15.2 10.2H13.3V12.1H15.1C15.5636 12.1 15.9 12.4364 15.9 12.9V13.3C15.9 13.7636 15.5636 14.1 15.1 14.1H13.3V16.8C13.3 17.2636 12.9636 17.6 12.5 17.6H11.5C11.0364 17.6 10.7 17.2636 10.7 16.8V14.1H8.8C8.3364 14.1 8 13.7636 8 13.3V12.9C8 12.4364 8.3364 12.1 8.8 12.1H10.7V10.2H9C8.5364 10.2 8.2 9.8636 8.2 9.4V9C8.2 8.5364 8.5364 8.2 9 8.2Z" fill="#087F6D"/>
<circle cx="17.2" cy="6.9" r="1.1" fill="#ED6741"/>
</svg>
